<?xml version="1.0" encoding="utf-8"?>
<!-- Generator: Adobe Illustrator 27.5.0, SVG Export Plug-In . SVG Version: 6.00 Build 0)  -->
<svg version="1.1" xmlns="http://www.w3.org/2000/svg" xmlns:xlink="http://www.w3.org/1999/xlink" x="0px" y="0px"
	 viewBox="0 0 500 500" style="enable-background:new 0 0 500 500;" xml:space="preserve">
<g id="BACKGROUND">
	<rect style="fill:#FFFFFF;" width="500" height="500"/>
</g>
<g id="OBJECTS">
	<g style="opacity:0.4;">
		<path style="fill:#969696;" d="M472.63,270.961c-6.233-19.934-22.342-34.88-36.918-49.839
			c-14.575-14.959-28.924-32.561-29.938-53.422c-1.457-29.992,25.131-56.374,22.399-86.277
			c-2.376-26.009-27.742-45.561-53.688-48.548c-25.945-2.987-51.689,7.192-74.221,20.397
			c-22.533,13.205-43.195,29.618-66.661,41.083c-33.829,16.528-71.776,21.996-108.649,29.609
			c-27.129,5.601-55.279,13.143-75.449,32.131C34.04,170.656,24.52,191.68,25.019,212.917c0.499,21.237,11.412,42.239,29.187,53.87
			c27.55,18.026,63.936,11.462,95.6,2.444c31.664-9.018,65.723-19.823,96.629-8.477c30.955,11.365,50.19,41.944,77.17,60.904
			c29.507,20.736,70.816,24.842,106.202,22.396C463.076,341.754,481.93,300.7,472.63,270.961z"/>
		<path style="fill:#969696;" d="M80.392,294.128c-10.588-4.27-21.175-8.54-31.763-12.81c-3.49-1.407-7.208-2.842-10.916-2.203
			c-6.88,1.186-10.721,9.398-9.466,16.266c1.254,6.868,6.145,12.461,11.208,17.268c6.61,6.275,13.977,11.944,22.436,15.335
			c8.459,3.392,18.138,4.346,26.71,1.25c6.407-2.314,18.036-10.746,16.274-18.85C103.134,302.369,86.81,296.716,80.392,294.128z"/>
	</g>
	<g>
		<g>
			
				<rect x="309.822" y="236.924" style="fill:none;stroke:#121D30;stroke-width:0.75;stroke-miterlimit:10;" width="137.483" height="186.082"/>
			<g>
				<g>
					
						<rect x="316.432" y="245.87" style="fill:none;stroke:#121D30;stroke-width:0.75;stroke-miterlimit:10;" width="124.266" height="168.19"/>
					<g>
						<g>
							
								<rect x="363.003" y="340.303" style="fill:none;stroke:#121D30;stroke-width:0.75;stroke-miterlimit:10;" width="31.12" height="10.231"/>
							
								<rect x="359.096" y="355.651" style="fill:none;stroke:#121D30;stroke-width:0.75;stroke-miterlimit:10;" width="38.936" height="4.21"/>
						</g>
						<g>
							<polyline style="fill:none;stroke:#121D30;stroke-width:0.75;stroke-miterlimit:10;" points="330.628,410.857 
								320.077,410.857 325.436,410.857 							"/>
							
								<line style="fill:none;stroke:#121D30;stroke-width:0.75;stroke-miterlimit:10;" x1="320.077" y1="407.34" x2="323.927" y2="407.34"/>
						</g>
						<g>
							
								<line style="fill:none;stroke:#121D30;stroke-width:0.75;stroke-miterlimit:10;" x1="375.017" y1="341.955" x2="382.865" y2="341.955"/>
							
								<line style="fill:none;stroke:#121D30;stroke-width:0.75;stroke-miterlimit:10;" x1="370.148" y1="344.833" x2="387.734" y2="344.833"/>
							
								<line style="fill:none;stroke:#121D30;stroke-width:0.75;stroke-miterlimit:10;" x1="375.489" y1="348.19" x2="382.393" y2="348.19"/>
						</g>
					</g>
				</g>
			</g>
			<g>
				<g>
					<g>
						
							<line style="fill:none;stroke:#121D30;stroke-width:0.75;stroke-miterlimit:10;" x1="440.698" y1="331.444" x2="316.432" y2="331.444"/>
						<g>
							
								<rect x="363.003" y="253.337" style="fill:none;stroke:#121D30;stroke-width:0.75;stroke-miterlimit:10;" width="31.12" height="10.231"/>
							
								<rect x="359.096" y="268.684" style="fill:none;stroke:#121D30;stroke-width:0.75;stroke-miterlimit:10;" width="38.936" height="4.21"/>
						</g>
						<g>
							
								<line style="fill:none;stroke:#121D30;stroke-width:0.75;stroke-miterlimit:10;" x1="421.431" y1="328.047" x2="437.111" y2="328.047"/>
							
								<line style="fill:none;stroke:#121D30;stroke-width:0.75;stroke-miterlimit:10;" x1="434.163" y1="325.489" x2="437.111" y2="325.489"/>
						</g>
						<g>
							
								<line style="fill:none;stroke:#121D30;stroke-width:0.75;stroke-miterlimit:10;" x1="369.964" y1="255.256" x2="387.876" y2="255.256"/>
							
								<line style="fill:none;stroke:#121D30;stroke-width:0.75;stroke-miterlimit:10;" x1="366.428" y1="258.24" x2="391.412" y2="258.24"/>
						</g>
						<g>
							
								<line style="fill:none;stroke:#121D30;stroke-width:0.75;stroke-miterlimit:10;" x1="315.601" y1="248.115" x2="321.809" y2="248.115"/>
							
								<line style="fill:none;stroke:#121D30;stroke-width:0.75;stroke-miterlimit:10;" x1="315.601" y1="252.271" x2="334.795" y2="252.271"/>
						</g>
					</g>
				</g>
			</g>
		</g>
	</g>
	<g>
		<g>
			<g>
				<path style="fill:#FFFFFF;" d="M88.313,230.859c21.401,4.669,42.802,9.338,64.204,14.007
					c-9.782-29.153,26.663-48.22,16.881-77.373c-21.401-4.669-42.802-9.338-64.203-14.007
					C114.976,182.639,78.531,201.706,88.313,230.859z"/>
			</g>
			<g>
				<path style="fill:none;stroke:#121D30;stroke-width:0.75;stroke-miterlimit:10;" d="M131.661,212.087l-11.562-2.188l0.219-1.156
					c0.372-1.967,0.898-3.522,1.576-4.665c0.678-1.143,1.555-2.137,2.629-2.985c1.074-0.847,3.395-2.257,6.962-4.229
					c1.896-1.028,2.95-2.099,3.161-3.215c0.211-1.115,0.045-2.045-0.497-2.789c-0.542-0.743-1.483-1.242-2.821-1.495
					c-1.44-0.273-2.722-0.021-3.846,0.753c-1.124,0.775-2.042,2.324-2.755,4.647l-11.529-3.695c1.227-4.264,3.465-7.459,6.715-9.586
					c3.249-2.127,7.714-2.653,13.393-1.578c4.422,0.837,7.817,2.436,10.186,4.796c3.219,3.194,4.436,6.87,3.649,11.028
					c-0.326,1.724-1.118,3.297-2.374,4.719c-1.257,1.422-3.574,3.011-6.953,4.766c-2.356,1.235-3.896,2.294-4.619,3.176
					C132.472,209.273,131.96,210.505,131.661,212.087z M119.122,212.897l12.383,2.344l-2.067,10.923l-12.383-2.344L119.122,212.897z
					"/>
			</g>
		</g>
		<g>
			<g>
				<path style="fill:#FFFFFF;" d="M320.388,200.566c18.86-11.141,37.72-22.281,56.58-33.421
					c-27.005-14.708-13.272-53.479-40.277-68.186c-18.86,11.14-37.72,22.281-56.58,33.421
					C307.116,147.087,293.383,185.858,320.388,200.566z"/>
			</g>
			<g>
				<path style="fill:none;stroke:#121D30;stroke-width:0.75;stroke-miterlimit:10;" d="M339.524,154.875l-10.25,5.779l-0.578-1.025
					c-0.983-1.744-1.584-3.272-1.802-4.583c-0.218-1.311-0.189-2.636,0.086-3.977c0.275-1.34,1.141-3.913,2.597-7.721
					c0.787-2.008,0.902-3.507,0.345-4.496c-0.557-0.989-1.283-1.593-2.177-1.812c-0.894-0.219-1.934,0.006-3.121,0.675
					c-1.277,0.72-2.095,1.738-2.455,3.055c-0.359,1.317-0.063,3.093,0.889,5.328l-11.196,4.606
					c-1.81-4.051-2.158-7.937-1.045-11.657c1.113-3.72,4.188-7,9.223-9.839c3.92-2.21,7.546-3.176,10.879-2.899
					c4.52,0.367,7.819,2.393,9.897,6.08c0.862,1.529,1.271,3.242,1.226,5.138c-0.044,1.897-0.792,4.606-2.244,8.126
					c-1.005,2.463-1.5,4.265-1.485,5.405C338.33,152.201,338.733,153.472,339.524,154.875z M330.459,163.576l10.978-6.19l5.46,9.684
					l-10.978,6.19L330.459,163.576z"/>
			</g>
		</g>
		<g>
			<g>
				<path style="fill:#FFFFFF;" d="M373.095,308.033c-18.86-11.14-37.72-22.281-56.58-33.421
					c27.005-14.708,13.272-53.479,40.277-68.186c18.86,11.141,37.72,22.281,56.58,33.421
					C386.366,254.555,400.099,293.326,373.095,308.033z"/>
			</g>
			<g>
				<path style="fill:none;stroke:#121D30;stroke-width:0.75;stroke-miterlimit:10;" d="M366.567,266.564l-10.515-5.281l0.528-1.051
					c0.899-1.789,1.831-3.14,2.798-4.053c0.966-0.912,2.082-1.628,3.348-2.148c1.266-0.519,3.884-1.237,7.856-2.153
					c2.106-0.467,3.413-1.208,3.923-2.223c0.51-1.014,0.606-1.954,0.289-2.818c-0.317-0.864-1.084-1.601-2.302-2.213
					c-1.31-0.658-2.611-0.768-3.905-0.332c-1.293,0.436-2.602,1.673-3.926,3.711l-10.07-6.72c2.351-3.762,5.382-6.22,9.09-7.372
					c3.709-1.152,8.146-0.431,13.311,2.163c4.022,2.02,6.847,4.49,8.476,7.41c2.218,3.955,2.377,7.824,0.478,11.606
					c-0.788,1.568-1.981,2.863-3.58,3.885c-1.599,1.022-4.264,1.913-7.995,2.673c-2.605,0.54-4.376,1.135-5.314,1.784
					C368.12,264.081,367.29,265.125,366.567,266.564z M354.289,263.897l11.263,5.656l-4.989,9.934l-11.263-5.656L354.289,263.897z"
					/>
			</g>
		</g>
	</g>
	<g>
		<g>
			<g>
				<path style="fill:#121D30;" d="M234.183,150.728c0,0,16.206-23.642,36.474-11.855c25.373,14.755-5.271,49.906,13.484,60.078
					c18.755,10.172,38.144,10.963,43.548,39.098c7.065,36.784-59.47,88.498-115.733,55.758
					c-56.263-32.741-36.248-94.017-9.826-106.213C233.921,172.917,234.183,150.728,234.183,150.728z"/>
				<path style="fill:#D28A7B;" d="M257.289,213.469v25.219c0,4.206-1.71,8.011-4.468,10.769c-2.742,2.758-6.547,4.468-10.753,4.468
					c-8.411,0-15.221-6.825-15.221-15.236v-25.219H257.289z"/>
				<g>
					<path style="fill:#D28A7B;" d="M193.581,196.18c1.263,6.171,7.29,10.149,13.461,8.886c6.171-1.263,10.149-7.29,8.886-13.461
						c-1.264-6.171-7.29-10.149-13.461-8.886C196.296,183.982,192.318,190.009,193.581,196.18z"/>
					<path style="fill:#121D30;" d="M210.69,177.081v19.226c0,0-7.634-6.781-7.422-20.131L210.69,177.081z"/>
					
						<line style="fill:none;stroke:#121D30;stroke-width:0.75;stroke-miterlimit:10;" x1="196.707" y1="191.856" x2="205.744" y2="197.972"/>
				</g>
				<g>
					<path style="fill:#D28A7B;" d="M259.618,193.892c1.264,6.171,7.29,10.149,13.461,8.886c6.171-1.263,10.149-7.29,8.886-13.461
						c-1.263-6.171-7.29-10.149-13.461-8.886C262.333,181.694,258.355,187.721,259.618,193.892z"/>
					<path style="fill:#121D30;" d="M270.792,191.604c0,0,6.523-7.134,4.231-24.05h-9.144L270.792,191.604z"/>
					
						<line style="fill:none;stroke:#121D30;stroke-width:0.75;stroke-miterlimit:10;" x1="268.913" y1="196.636" x2="277.76" y2="188.066"/>
				</g>
				<path style="fill:#D28A7B;" d="M240.741,147.031L240.741,147.031c-16.597,0-30.051,13.454-30.051,30.051v21.878
					c0,4.624,2.381,8.921,6.3,11.374l16.634,10.409c4.353,2.724,9.88,2.724,14.234,0l16.634-10.409c3.919-2.452,6.3-6.75,6.3-11.374
					v-21.878C270.792,160.485,257.337,147.031,240.741,147.031z"/>
				<path style="fill:none;stroke:#121D30;stroke-width:0.75;stroke-miterlimit:10;" d="M226.846,216.753l6.777,4.241
					c4.353,2.724,9.88,2.724,14.234,0"/>
				<polyline style="fill:none;stroke:#121D30;stroke-width:0.75;stroke-miterlimit:10;" points="238.223,147.031 245.764,198.958 
					236.301,198.958 				"/>
				<path style="fill:#CB705D;" d="M269.453,192.351c0,4.247-3.443,7.689-7.689,7.689c-4.247,0-7.69-3.443-7.69-7.689
					c0-4.247,3.443-7.689,7.69-7.689C266.011,184.661,269.453,188.104,269.453,192.351z"/>
				
					<ellipse transform="matrix(0.7071 -0.7071 0.7071 0.7071 -71.3321 212.4908)" style="fill:#CB705D;" cx="220.833" cy="192.351" rx="7.689" ry="7.689"/>
				<g>
					<path style="fill:#121D30;" d="M257.277,185.003c0,2.671-1.176,4.822-2.637,4.822c-1.462,0-2.654-2.151-2.654-4.822
						c0-2.15,0.79-3.982,1.865-4.586h0.017l3.242,2.873C257.21,183.811,257.277,184.399,257.277,185.003z"/>
					<path style="fill:#121D30;" d="M229.491,185.003c0,2.671-1.176,4.822-2.638,4.822c-1.479,0-2.654-2.151-2.654-4.822
						c0-0.773,0.101-1.495,0.286-2.134l3.713-1.982C228.986,181.727,229.491,183.256,229.491,185.003z"/>
				</g>
				<path style="fill:#121D30;" d="M275.872,142.943c-20.274-11.785-41.696,7.778-41.696,7.778s-0.262,22.2-32.044,36.866
					c-6.702,3.097-15.682,14.116-19.888,20.818c0,0,9.289-26.796,12.216-44.127c2.943-17.347,18.348-14.666,18.348-14.666
					s9.336-22.816,35.156-22.708C265.85,126.98,275.872,142.943,275.872,142.943z"/>
				<path style="fill:#121D30;" d="M255.28,166.171c3.676-2.391,5.992-1.859,5.443,3.242L255.28,166.171z"/>
				<path style="fill:#121D30;" d="M218.569,170.514c-0.827-4.307,0.539-6.251,5.056-3.817L218.569,170.514z"/>
			</g>
			<path style="fill:none;stroke:#121D30;stroke-width:0.75;stroke-miterlimit:10;" d="M235.887,207.705
				c3.989-5.395,9.017-3.181,10.292,0"/>
		</g>
		<g>
			<path style="fill:#D28A7B;" d="M369.854,310.032L369.854,310.032c4.945-6.204,3.923-15.243-2.281-20.187l-55.819-44.484
				c-6.204-4.945-15.243-3.923-20.187,2.281l0,0c-4.945,6.204-3.923,15.243,2.282,20.188l55.819,44.484
				C355.872,317.258,364.91,316.236,369.854,310.032z"/>
			<path style="fill:#D28A7B;" d="M116.652,312.48L116.652,312.48c-4.945-6.205-3.923-15.243,2.281-20.187l55.819-44.484
				c6.204-4.945,15.243-3.923,20.187,2.281l0,0c4.945,6.204,3.923,15.243-2.282,20.188l-55.819,44.484
				C130.635,319.706,121.597,318.685,116.652,312.48z"/>
			<path style="fill:#EDB837;" d="M287.274,230.93l-41.511,13.791v0.443l-42.842-14.234c-13.564-4.507-26.52,8.266-22.207,21.893
				l32.145,101.559h32.904h24.566l39.151-101.559C313.794,239.196,300.838,226.423,287.274,230.93z"/>
			<polygon style="fill:#EDB837;" points="262.897,259.792 267.174,231.602 218.805,226.908 223.3,259.792 			"/>
			<g>
				<path style="fill:#121D30;" d="M221.44,242.21c6.698,14.694,17.992,21.347,27.04,21.347c7.181,0,12.903-4.029,15.964-10.886
					c-0.472,5.019-1.305,12.013-2.705,18.959c-2.368,11.75-6.857,25.756-14.79,25.756c-0.768,0-1.571-0.132-2.386-0.391
					C230.192,292.422,223.563,256.741,221.44,242.21 M219.895,236.165c0,0,5.744,55.595,24.44,61.544
					c0.908,0.289,1.779,0.427,2.614,0.427c16.34,0,18.796-52.715,18.796-52.715c-1.792,11.688-8.949,17.386-17.265,17.386
					C237.982,262.807,225.636,253.73,219.895,236.165L219.895,236.165z"/>
			</g>
			<g>
				<polygon style="fill:#2E363D;" points="201.304,336.673 281.191,332.342 274.19,352.584 207.685,351.864 				"/>
				<path style="fill:#2E363D;" d="M274.19,352.584c0,0,27.365,25.299,28.986,70.423h-122.37c0-42.408,26.88-71.142,26.88-71.142
					L274.19,352.584z"/>
				<path style="fill:none;stroke:#FFFFFF;stroke-width:0.75;stroke-miterlimit:10;" d="M242.792,357.149l1.639,33.495
					c0,0-6.522-2.637-6.364-13.864"/>
				<path style="fill:none;stroke:#FFFFFF;stroke-width:0.75;stroke-miterlimit:10;" d="M288.847,371.228h-19.825
					c0,0,9.239,21.596,28.893,19.701"/>
				<path style="fill:none;stroke:#FFFFFF;stroke-width:0.75;stroke-miterlimit:10;" d="M183.728,394.033
					c0,0,14.638,3.526,27.618-17.271"/>
				<g>
					<rect x="209.95" y="349.13" style="fill:#5C5C5C;" width="13.844" height="6.922"/>
					<rect x="256.881" y="349.13" style="fill:#5C5C5C;" width="13.844" height="6.922"/>
					<rect x="230.224" y="349.13" style="fill:#5C5C5C;" width="21.031" height="6.922"/>
					<rect x="235.576" y="347.738" style="fill:#FFFFFF;" width="10.328" height="9.706"/>
				</g>
			</g>
			<path style="fill:#D28A7B;" d="M120.992,290.616L120.992,290.616c8.487-5.309,19.671-2.732,24.98,5.756l36.093,64.939
				l-11.054,12.797l-55.775-58.512C109.927,307.109,112.504,295.925,120.992,290.616z"/>
			<g>
				<g>
					<path style="fill:#D28A7B;" d="M177.567,357.342c14.616-0.061,27.831-7.424,27.831-7.424l8.214,25.659
						c-24.056,9.121-36.225,3.112-42.638-1.429L177.567,357.342z"/>
					<path style="fill:#D28A7B;" d="M205.399,349.918c0,0,13.469-1.198,23.088,5.157l1.738,16.02c0,0-11.236-3.674-18.441-1.233
						c0,0,12.435,2.359,17.253,7.592l-3.411,3.44c0,0-10.754-4.751-22.394-3.104L205.399,349.918z"/>
				</g>
				<path style="fill:none;stroke:#121D30;stroke-width:0.75;stroke-miterlimit:10;" d="M228.829,359.159
					c0,0-11.224-3.635-19.66-3.874"/>
				<path style="fill:none;stroke:#121D30;stroke-width:0.75;stroke-miterlimit:10;" d="M229.609,365.419
					c0,0-9.886-3.986-20.157-3.236"/>
			</g>
			<g>
				<polygon style="fill:#E69230;" points="159.175,243.413 177.98,263.625 188.987,292.069 169.793,270.299 				"/>
				<polygon style="fill:#EDB837;" points="186.416,233.923 153.97,253.475 176.777,290.966 198.072,276.446 				"/>
				<polygon style="fill:#FFFFFF;" points="159.175,243.413 169.793,270.299 188.987,292.069 172.877,298.026 157.813,277.443 
					147.304,251.173 				"/>
			</g>
			
				<line style="fill:none;stroke:#121D30;stroke-width:0.75;stroke-miterlimit:10;" x1="150.483" y1="304.489" x2="145.972" y2="296.372"/>
			<path style="fill:#D28A7B;" d="M365.515,288.167L365.515,288.167c-8.487-5.309-19.671-2.732-24.98,5.756l-36.093,64.939
				l11.054,12.797l55.775-58.512C376.579,304.66,374.002,293.476,365.515,288.167z"/>
			<g>
				<g>
					<path style="fill:#D28A7B;" d="M308.939,354.893c-14.616-0.061-27.831-7.424-27.831-7.424l-8.214,25.659
						c24.056,9.121,36.225,3.112,42.638-1.429L308.939,354.893z"/>
					<path style="fill:#D28A7B;" d="M281.108,347.469c0,0-13.47-1.198-23.088,5.157l-1.737,16.02c0,0,11.236-3.674,18.441-1.233
						c0,0-12.435,2.359-17.253,7.592l3.411,3.44c0,0,10.754-4.751,22.394-3.104L281.108,347.469z"/>
				</g>
				<path style="fill:none;stroke:#121D30;stroke-width:0.75;stroke-miterlimit:10;" d="M257.678,356.711
					c0,0,11.224-3.635,19.66-3.874"/>
				<path style="fill:none;stroke:#121D30;stroke-width:0.75;stroke-miterlimit:10;" d="M256.898,362.97
					c0,0,9.886-3.986,20.157-3.236"/>
			</g>
			<g>
				<polygon style="fill:#E69230;" points="327.332,240.964 308.526,261.176 297.52,289.621 316.714,267.85 				"/>
				<polygon style="fill:#EDB837;" points="300.09,231.474 332.536,251.027 309.729,288.518 288.435,273.997 				"/>
				<polygon style="fill:#FFFFFF;" points="327.332,240.964 316.714,267.85 297.52,289.621 313.629,295.577 328.693,274.994 
					339.202,248.724 				"/>
			</g>
			
				<line style="fill:none;stroke:#121D30;stroke-width:0.75;stroke-miterlimit:10;" x1="336.023" y1="302.041" x2="340.535" y2="293.923"/>
		</g>
	</g>
	<g>
		<g>
			<g>
				<path style="fill:#DEDEDE;" d="M300.491,423.007H184.015c-0.818,0-1.482-0.663-1.482-1.482v-1.316h119.44v1.316
					C301.972,422.343,301.309,423.007,300.491,423.007z"/>
				<path style="fill:#969696;" d="M266.964,377.844h-49.298v16.871c16.259-3.705,32.76-6.778,49.298-9.63V377.844z"/>
				<path style="fill:#DEDEDE;" d="M217.666,394.715v17.466h49.298v-27.096C250.426,387.937,233.925,391.009,217.666,394.715z"/>
				<path style="fill:#DEDEDE;" d="M301.335,421.01H183.296c-0.798,0-0.978-1.12-0.22-1.37l34.59-11.384h49.298l34.59,11.384
					C302.312,419.89,302.133,421.01,301.335,421.01z"/>
				<g>
					
						<line style="fill:none;stroke:#121D30;stroke-width:0.75;stroke-miterlimit:10;" x1="261.372" y1="408.257" x2="265.796" y2="408.257"/>
					
						<line style="fill:none;stroke:#121D30;stroke-width:0.75;stroke-miterlimit:10;" x1="217.666" y1="408.257" x2="256.824" y2="408.257"/>
					
						<line style="fill:none;stroke:#121D30;stroke-width:0.75;stroke-miterlimit:10;" x1="217.666" y1="394.715" x2="254.774" y2="387.235"/>
					
						<line style="fill:none;stroke:#121D30;stroke-width:0.75;stroke-miterlimit:10;" x1="266.964" y1="377.844" x2="266.964" y2="408.257"/>
					
						<line style="fill:none;stroke:#121D30;stroke-width:0.75;stroke-miterlimit:10;" x1="216.647" y1="421.01" x2="300.535" y2="421.01"/>
					
						<line style="fill:none;stroke:#121D30;stroke-width:0.75;stroke-miterlimit:10;" x1="217.666" y1="379.88" x2="217.666" y2="405.672"/>
				</g>
			</g>
			<path style="fill:#DEDEDE;" d="M339.094,381.634H145.476c-4.618,0-8.362-3.744-8.362-8.362V245.392
				c0-4.618,3.744-8.362,8.362-8.362h193.618c4.618,0,8.362,3.744,8.362,8.362v127.881
				C347.456,377.89,343.712,381.634,339.094,381.634z"/>
			<path style="fill:none;stroke:#121D30;stroke-width:0.75;stroke-miterlimit:10;" d="M347.456,267.741v105.531
				c0,4.618-3.744,8.362-8.362,8.362h-92.628"/>
			<path style="fill:none;stroke:#121D30;stroke-width:0.75;stroke-miterlimit:10;" d="M347.456,267.741"/>
			<path style="fill:none;stroke:#121D30;stroke-width:0.75;stroke-miterlimit:10;" d="M137.114,354.383V245.392
				c0-4.618,3.744-8.362,8.362-8.362h193.618"/>
		</g>
		<g>
			<g>
				<path style="fill:#FFFFFF;" d="M283.59,289.485c-5.734,0-11.003,1.974-15.178,5.272c0.001-0.081,0.003-0.161,0.003-0.241
					c0-14.431-11.699-26.13-26.13-26.13c-14.431,0-26.13,11.699-26.13,26.13c0,0.081,0.002,0.161,0.003,0.241
					c-4.175-3.298-9.445-5.272-15.178-5.272c-13.538,0-24.512,10.974-24.512,24.512s10.974,24.512,24.512,24.512
					c0.318,0,0.634-0.012,0.949-0.024c0.315,0.012,0.631,0.024,0.949,0.024h79.185c0.256,0,0.509-0.011,0.764-0.019
					c0.254,0.008,0.508,0.019,0.764,0.019c13.538,0,24.512-10.974,24.512-24.512S297.128,289.485,283.59,289.485z"/>
				<path style="fill:none;stroke:#121D30;stroke-width:0.75;stroke-miterlimit:10;" d="M283.59,289.485
					c-5.734,0-11.003,1.974-15.178,5.272c0.001-0.081,0.003-0.161,0.003-0.241c0-14.431-11.699-26.13-26.13-26.13
					c-14.431,0-26.13,11.699-26.13,26.13c0,0.081,0.002,0.161,0.003,0.241c-4.175-3.298-9.445-5.272-15.178-5.272
					c-13.538,0-24.512,10.974-24.512,24.512s10.974,24.512,24.512,24.512c0.318,0,0.634-0.012,0.949-0.024
					c0.315,0.012,0.631,0.024,0.949,0.024"/>
			</g>
			<g>
				
					<ellipse transform="matrix(0.9262 -0.3771 0.3771 0.9262 -106.4616 115.6985)" style="fill:#121D30;" cx="242.285" cy="329.772" rx="24.345" ry="24.345"/>
				<path style="fill:#FFFFFF;" d="M252.663,338.826l-9.054-9.054l9.054-9.053c0.364-0.364,0.364-0.96,0-1.324
					c-0.364-0.364-0.96-0.364-1.324,0l-9.053,9.053l-9.053-9.053c-0.364-0.364-0.96-0.364-1.324,0c-0.364,0.364-0.364,0.96,0,1.324
					l9.053,9.053l-9.053,9.054c-0.364,0.364-0.364,0.96,0,1.324c0.364,0.364,0.96,0.364,1.324,0l9.054-9.053l9.053,9.053
					c0.364,0.364,0.96,0.364,1.324,0C253.027,339.786,253.027,339.19,252.663,338.826z"/>
			</g>
		</g>
	</g>
	<g>
		<g>
			<g>
				
					<rect x="110.789" y="343.354" transform="matrix(6.123234e-17 -1 1 6.123234e-17 -279.5244 517.4353)" style="fill:#5C5C5C;" width="16.333" height="110.251"/>
				
					<rect x="91.178" y="368.762" transform="matrix(6.123234e-17 -1 1 6.123234e-17 -300.8487 496.1111)" style="fill:#FFFFFF;" width="12.906" height="59.436"/>
				<g>
					
						<rect x="64.533" y="397.813" transform="matrix(6.123234e-17 -1 1 6.123234e-17 -328.3122 468.6476)" style="fill:#5C5C5C;" width="11.269" height="1.333"/>
					
						<rect x="118.524" y="397.813" transform="matrix(6.123234e-17 -1 1 6.123234e-17 -274.321 522.6387)" style="fill:#5C5C5C;" width="11.269" height="1.333"/>
				</g>
				<g>
					<path style="fill:#969696;" d="M153.437,392.582c3.258,0,5.898,2.641,5.898,5.898c0,3.258-2.641,5.898-5.898,5.898
						c-3.257,0-5.898-2.641-5.898-5.898C147.539,395.222,150.18,392.582,153.437,392.582z"/>
					<path style="fill:#DEDEDE;" d="M153.437,393.475c2.764,0,5.005,2.241,5.005,5.004c0,2.764-2.241,5.005-5.005,5.005
						c-2.764,0-5.005-2.241-5.005-5.005C148.433,395.716,150.673,393.475,153.437,393.475z"/>
				</g>
			</g>
			<g>
				
					<line style="fill:none;stroke:#121D30;stroke-width:0.75;stroke-miterlimit:10;" x1="172.266" y1="405.224" x2="172.266" y2="402.492"/>
				
					<line style="fill:none;stroke:#121D30;stroke-width:0.75;stroke-miterlimit:10;" x1="170.224" y1="405.224" x2="170.224" y2="403.636"/>
			</g>
		</g>
		<g>
			<g>
				
					<rect x="110.789" y="359.688" transform="matrix(6.123234e-17 -1 1 6.123234e-17 -295.8578 533.7687)" style="fill:#EDB837;" width="16.333" height="110.251"/>
				
					<rect x="91.178" y="385.095" transform="matrix(6.123234e-17 -1 1 6.123234e-17 -317.1821 512.4445)" style="fill:#FFFFFF;" width="12.906" height="59.436"/>
				<g>
					
						<rect x="64.533" y="414.147" transform="matrix(6.123234e-17 -1 1 6.123234e-17 -344.6456 484.9809)" style="fill:#DEDEDE;" width="11.269" height="1.333"/>
					
						<rect x="118.524" y="414.147" transform="matrix(6.123234e-17 -1 1 6.123234e-17 -290.6544 538.9721)" style="fill:#DEDEDE;" width="11.269" height="1.333"/>
				</g>
				<g>
					<path style="fill:#5C5C5C;" d="M153.437,408.915c3.258,0,5.898,2.641,5.898,5.898c0,3.258-2.641,5.898-5.898,5.898
						c-3.257,0-5.898-2.641-5.898-5.898C147.539,411.556,150.18,408.915,153.437,408.915z"/>
					<path style="fill:#DEDEDE;" d="M153.437,409.809c2.764,0,5.005,2.241,5.005,5.005c0,2.764-2.241,5.005-5.005,5.005
						c-2.764,0-5.005-2.241-5.005-5.005C148.433,412.049,150.673,409.809,153.437,409.809z"/>
				</g>
			</g>
			<g>
				
					<line style="fill:none;stroke:#121D30;stroke-width:0.75;stroke-miterlimit:10;" x1="170.451" y1="410.65" x2="170.451" y2="412.029"/>
				
					<line style="fill:none;stroke:#121D30;stroke-width:0.75;stroke-miterlimit:10;" x1="172.493" y1="414.752" x2="172.493" y2="411.115"/>
			</g>
		</g>
	</g>
	<line style="fill:none;stroke:#121D30;stroke-miterlimit:10;" x1="33.872" y1="423.007" x2="450.698" y2="423.007"/>
	<g>
		<g>
			<path style="fill:#2E363D;" d="M425.253,182.602c-1.892-0.428-3.698-1.296-5.222-2.509l0.492-0.617
				c1.431,1.14,3.127,1.955,4.905,2.357L425.253,182.602z M431.046,182.597l-0.176-0.769c1.777-0.406,3.471-1.224,4.899-2.367
				l0.493,0.617C434.741,181.294,432.938,182.165,431.046,182.597z M416.411,175.572c-0.857-1.768-1.293-3.667-1.297-5.646
				l0.789-0.002c0.004,1.858,0.414,3.643,1.219,5.303L416.411,175.572z M439.874,175.548l-0.711-0.343
				c0.802-1.661,1.208-3.447,1.208-5.306l0.565-0.037l0.224,0.019C441.161,171.878,440.728,173.779,439.874,175.548z
				 M417.099,164.615l-0.712-0.341c0.839-1.75,2.085-3.319,3.603-4.537l0.493,0.616
				C419.058,161.497,417.887,162.971,417.099,164.615z M439.143,164.548c-0.798-1.638-1.977-3.105-3.411-4.241l0.49-0.618
				c1.525,1.209,2.781,2.77,3.63,4.514L439.143,164.548z M425.38,157.976l-0.177-0.769c0.956-0.22,1.942-0.332,2.929-0.332
				c0.002,0,0.004,0,0.005,0c0.964,0,1.926,0.106,2.858,0.314l-0.173,0.77c-0.876-0.196-1.78-0.295-2.685-0.295
				c-0.001,0-0.003,0-0.005,0C427.204,157.665,426.278,157.769,425.38,157.976z"/>
		</g>
		<g>
			<path style="fill:#2E363D;" d="M49.864,201.039c-0.002,0-0.003,0-0.005,0l-0.229-0.001l0.008-0.789l0.222,0.001
				c0.002,0,0.003,0,0.005,0c1.742,0,3.48-0.187,5.167-0.557l0.169,0.771C53.458,200.845,51.663,201.039,49.864,201.039z
				 M44.07,200.362c-1.819-0.434-3.591-1.077-5.267-1.91l0.352-0.707c1.622,0.807,3.338,1.429,5.099,1.849L44.07,200.362z
				 M60.501,198.652l-0.338-0.713c1.632-0.773,3.181-1.736,4.605-2.861l0.489,0.62C63.787,196.859,62.186,197.853,60.501,198.652z
				 M34.101,195.408c-1.446-1.186-2.76-2.537-3.905-4.015l0.623-0.483c1.109,1.431,2.381,2.739,3.782,3.888L34.101,195.408z
				 M69.235,191.756l-0.615-0.495c1.138-1.413,2.115-2.954,2.906-4.58l0.71,0.344C71.419,188.706,70.41,190.298,69.235,191.756z
				 M27.285,186.61c-0.786-1.698-1.379-3.487-1.762-5.317l0.772-0.162c0.371,1.772,0.945,3.503,1.705,5.147L27.285,186.61z
				 M74.097,181.741l-0.769-0.176c0.402-1.757,0.605-3.57,0.605-5.389h0.789C74.722,178.054,74.512,179.927,74.097,181.741z
				 M25.789,175.732L25,175.718c0.034-1.876,0.278-3.745,0.727-5.552l0.766,0.19C26.059,172.106,25.822,173.915,25.789,175.732z
				 M73.509,171.654c-0.338-1.779-0.879-3.521-1.61-5.178l0.722-0.318c0.754,1.712,1.314,3.512,1.663,5.349L73.509,171.654z
				 M28.39,165.274l-0.704-0.358c0.847-1.665,1.886-3.238,3.087-4.675l0.606,0.507C30.215,162.139,29.21,163.662,28.39,165.274z
				 M69.166,161.794c-1.083-1.451-2.331-2.782-3.71-3.956l0.512-0.601c1.424,1.212,2.713,2.587,3.831,4.086L69.166,161.794z
				 M35.3,157.001l-0.478-0.628c1.49-1.133,3.108-2.097,4.81-2.866l0.325,0.719C38.31,154.971,36.743,155.905,35.3,157.001z
				 M60.958,154.807c-1.608-0.837-3.312-1.49-5.064-1.943l0.197-0.764c1.81,0.467,3.57,1.142,5.231,2.007L60.958,154.807z
				 M45.12,152.568l-0.155-0.774c1.599-0.32,3.244-0.481,4.888-0.481c0.237,0,0.462,0.003,0.692,0.009l-0.022,0.789
				c-0.223-0.007-0.459-0.023-0.671-0.009C48.26,152.102,46.668,152.259,45.12,152.568z"/>
		</g>
		<g>
			<circle style="fill:#2E363D;" cx="73.143" cy="189.989" r="7.498"/>
		</g>
		<g>
			<path style="fill:#2E363D;" d="M342.26,58.09c0,3.051-2.474,5.525-5.525,5.525c-3.051,0-5.525-2.474-5.525-5.525
				c0-3.051,2.474-5.525,5.525-5.525C339.786,52.565,342.26,55.039,342.26,58.09z"/>
		</g>
		<g>
			<path style="fill:#2E363D;" d="M423.007,160.401c0,2.18-1.767,3.947-3.947,3.947s-3.946-1.767-3.946-3.947
				c0-2.18,1.767-3.947,3.946-3.947S423.007,158.221,423.007,160.401z"/>
		</g>
		<g>
			<circle style="fill:#2E363D;" cx="151.562" cy="129.462" r="5.92"/>
		</g>
		<g>
			<path style="fill:#2E363D;" d="M162.218,147.616c-0.469,0-0.939-0.03-1.399-0.091l0.103-0.782c1.755,0.23,3.57-0.016,5.199-0.717
				l0.312,0.724C165.099,147.325,163.681,147.616,162.218,147.616z M155.6,145.313c-1.509-1.198-2.667-2.779-3.348-4.572l0.738-0.28
				c0.63,1.66,1.703,3.124,3.101,4.234L155.6,145.313z M170.852,143.205l-0.639-0.463c1.045-1.443,1.679-3.142,1.833-4.915
				l0.786,0.069C172.666,139.81,171.981,141.646,170.852,143.205z M152.351,136.96h-0.789c0-1.928,0.521-3.817,1.505-5.463
				l0.678,0.405C152.833,133.426,152.351,135.175,152.351,136.96z M171.102,132.665c-0.775-1.601-1.972-2.966-3.459-3.947
				l0.435-0.659c1.606,1.06,2.897,2.533,3.735,4.262L171.102,132.665z M157.537,128.273l-0.376-0.694
				c1.68-0.907,3.628-1.348,5.524-1.264l-0.035,0.789C160.898,127.028,159.092,127.433,157.537,128.273z"/>
		</g>
		<g>
			<path style="fill:#2E363D;" d="M348.847,79.231c-1.911-0.143-3.736-0.67-5.426-1.566l0.37-0.697
				c1.592,0.845,3.313,1.341,5.114,1.475L348.847,79.231z M354.445,78.502l-0.26-0.745c1.699-0.593,3.233-1.518,4.559-2.748
				l0.536,0.578C357.874,76.892,356.247,77.872,354.445,78.502z M339.079,74.056c-1.195-1.501-2.049-3.198-2.54-5.044l0.763-0.202
				c0.462,1.74,1.268,3.339,2.395,4.754L339.079,74.056z M362.552,70.985l-0.723-0.316c0.72-1.646,1.084-3.398,1.084-5.211h0.789
				C363.703,67.38,363.316,69.239,362.552,70.985z M362.837,64.037c-0.195-1.794-0.749-3.496-1.648-5.06l0.684-0.393
				c0.954,1.659,1.542,3.465,1.748,5.369L362.837,64.037z M337.013,63.495l-0.78-0.118c0.285-1.892,0.95-3.671,1.973-5.292
				l0.668,0.422C337.909,60.034,337.283,61.712,337.013,63.495z M357.652,54.999c-1.451-1.079-3.077-1.831-4.832-2.234l0.177-0.769
				c1.862,0.428,3.587,1.226,5.125,2.369L357.652,54.999z M342.576,54.68l-0.444-0.652c1.586-1.078,3.342-1.802,5.221-2.15
				l0.143,0.775C345.726,52.982,344.07,53.664,342.576,54.68z"/>
		</g>
	</g>
</g>
</svg>
